<!--?xml version="1.0" encoding="utf-8"?-->
<!-- Generator: Adobe Illustrator 18.1.1, SVG Export Plug-In . SVG Version: 6.00 Build 0)  -->

<svg version="1.1" id="_x32_" xmlns="http://www.w3.org/2000/svg" xmlns:xlink="http://www.w3.org/1999/xlink" x="0px" y="0px" viewBox="0 0 512 512" style="enable-background:new 0 0 512 512;" xml:space="preserve">
<style type="text/css">
	.st0{fill:#4B4B4B;}
</style>
<g>
	<path class="st0" d="M458.736,163.51c-29.42,0-53.264,23.844-53.264,53.264c0,4.866,0,70.186,0,70.186
		c0,11.636-9.436,21.066-21.066,21.066H127.593c-11.636,0-21.065-9.43-21.065-21.066c0,0,0-65.32,0-70.186
		c0-29.42-23.85-53.264-53.27-53.264C23.844,163.51,0,187.354,0,216.774c0,18.972,9.92,35.631,24.856,45.066
		c2.76,1.741,5.903,4.482,5.903,32.896c0,28.421,0,48.946,0,48.946c0,26.37,21.379,47.75,47.756,47.75h354.969
		c26.37,0,47.757-21.38,47.757-47.75c0,0,0-20.525,0-48.946c0-28.414,3.143-31.155,5.896-32.896
		C502.08,252.404,512,235.746,512,216.774C512,187.354,488.15,163.51,458.736,163.51z"></path>
	<polygon class="st0" points="81.967,453.364 107.194,453.364 126.116,405.808 87.229,405.808 	"></polygon>
	<polygon class="st0" points="385.884,405.808 404.806,453.364 430.033,453.364 424.771,405.808 	"></polygon>
	<path class="st0" d="M121.389,216.774v70.186c0,3.42,2.785,6.205,6.204,6.205h256.814c3.42,0,6.198-2.784,6.198-6.205v-70.186
		c0-32.57,22.983-59.858,53.579-66.547v-28.389c0-34.902-28.301-63.202-63.203-63.202H131.02c-34.902,0-63.203,28.301-63.203,63.202
		v28.389C98.406,156.916,121.389,184.204,121.389,216.774z M350.763,132.958c5.928,0,10.736,4.809,10.736,10.737
		c0,5.928-4.808,10.731-10.736,10.731s-10.737-4.803-10.737-10.731C340.026,137.768,344.835,132.958,350.763,132.958z
		 M350.763,214.712c5.928,0,10.736,4.809,10.736,10.737c0,5.928-4.808,10.736-10.736,10.736s-10.737-4.808-10.737-10.736
		C340.026,219.521,344.835,214.712,350.763,214.712z M257.135,132.958c5.928,0,10.737,4.809,10.737,10.737
		c0,5.928-4.81,10.731-10.737,10.731c-5.928,0-10.737-4.803-10.737-10.731C246.398,137.768,251.207,132.958,257.135,132.958z
		 M257.135,214.712c5.928,0,10.737,4.809,10.737,10.737c0,5.928-4.81,10.736-10.737,10.736c-5.928,0-10.737-4.808-10.737-10.736
		C246.398,219.521,251.207,214.712,257.135,214.712z M163.507,132.958c5.928,0,10.737,4.809,10.737,10.737
		c0,5.928-4.809,10.731-10.737,10.731c-5.928,0-10.737-4.803-10.737-10.731C152.77,137.768,157.579,132.958,163.507,132.958z
		 M163.507,214.712c5.928,0,10.737,4.809,10.737,10.737c0,5.928-4.809,10.736-10.737,10.736c-5.928,0-10.737-4.808-10.737-10.736
		C152.77,219.521,157.579,214.712,163.507,214.712z"></path>
</g>
</svg>
