<!--?xml version="1.0" encoding="utf-8"?-->
<!-- Generator: Adobe Illustrator 18.1.1, SVG Export Plug-In . SVG Version: 6.00 Build 0)  -->

<svg version="1.1" id="_x32_" xmlns="http://www.w3.org/2000/svg" xmlns:xlink="http://www.w3.org/1999/xlink" x="0px" y="0px" viewBox="0 0 512 512" style="width: 256px; height: 256px; opacity: 1;" xml:space="preserve">
<style type="text/css">
	.st0{fill:#4B4B4B;}
</style>
<g>
	<rect x="64.953" class="st0" width="382.094" height="61.127" style="fill: rgb(75, 75, 75);"></rect>
	<path class="st0" d="M72.596,225.423h366.808V87.873H72.596V225.423z M256.004,123.594c13.649,0,24.715,11.066,24.715,24.715
		c0,13.658-11.066,24.724-24.715,24.724c-13.658,0-24.724-11.066-24.724-24.724C231.28,134.66,242.347,123.594,256.004,123.594z" style="fill: rgb(75, 75, 75);"></path>
	<path class="st0" d="M72.596,385.902V512h61.136V385.902h244.536V512h61.136V385.902v-137.55H72.596V385.902z M256.004,284.073
		c13.649,0,24.715,11.066,24.715,24.715c0,13.657-11.066,24.724-24.715,24.724c-13.658,0-24.724-11.067-24.724-24.724
		C231.28,295.138,242.347,284.073,256.004,284.073z" style="fill: rgb(75, 75, 75);"></path>
</g>
</svg>
