<!--?xml version="1.0" encoding="utf-8"?-->
<!-- Generator: Adobe Illustrator 18.1.1, SVG Export Plug-In . SVG Version: 6.00 Build 0)  -->

<svg version="1.1" id="_x32_" xmlns="http://www.w3.org/2000/svg" xmlns:xlink="http://www.w3.org/1999/xlink" x="0px" y="0px" viewBox="0 0 512 512" style="width: 256px; height: 256px; opacity: 1;" xml:space="preserve">
<style type="text/css">
	.st0{fill:#4B4B4B;}
</style>
<g>
	<path class="st0" d="M0,452.649c0,5.723,4.66,10.394,10.387,10.394h491.227c5.727,0,10.386-4.671,10.386-10.394V336.06H0V452.649z" style="fill: rgb(75, 75, 75);"></path>
	<path class="st0" d="M112.402,157.836v-40.792c0-10.732,8.706-19.446,19.422-19.446h95.188c10.708,0,19.418,8.714,19.418,19.446
		v40.792c0,6.704-3.419,12.64-8.608,16.117h36.336c-5.186-3.478-8.589-9.413-8.589-16.117v-40.792
		c0-10.732,8.691-19.446,19.418-19.446h95.189c10.716,0,19.398,8.714,19.398,19.446v40.792c0,6.704-3.399,12.64-8.584,16.117h51.362
		l-8.588-18.684V80.123c0-17.208-13.954-31.167-31.167-31.167H109.402c-17.212,0-31.186,13.958-31.186,31.167v75.146l-8.569,18.684
		h51.339C115.804,170.476,112.402,164.541,112.402,157.836z" style="fill: rgb(75, 75, 75);"></path>
	<polygon class="st0" points="452.072,195.134 59.928,195.134 0,325.721 512,325.721 	" style="fill: rgb(75, 75, 75);"></polygon>
</g>
</svg>
