<?xml version="1.0" encoding="utf-8"?>
<!-- Generator: Adobe Illustrator 19.0.0, SVG Export Plug-In . SVG Version: 6.00 Build 0)  -->
<svg version="1.1" id="レイヤー_1" xmlns="http://www.w3.org/2000/svg" xmlns:xlink="http://www.w3.org/1999/xlink" x="0px"
	 y="0px" viewBox="0 0 86.3 84.2" style="enable-background:new 0 0 86.3 84.2;" xml:space="preserve">
<style type="text/css">
	.st0{fill:#244304;}
</style>
<g>
	<path class="st0" d="M79.7,18.3c1,1.3,1,2.5,0,3c-5.4,1.1-10.8,2.8-16.3,3.2c-7,0.5-8.6,2.2-6.1,8.7c7.1,18.2-2.3,38-20.8,44
		c-0.9,0.3-1.9,0.7-2.8,1.1c-4,1.3-8.5,1.3-13,0C15,76,11,72,8.7,66.3c-1.1-4.4-1.1-8.9,0-13c2.1-5.2,4.3-10.4,6.4-15.6
		C21,23.3,31.4,18.6,46.2,23.6c1.4,0.5,2.8,0.9,4.2,1.4c-2.1-5.9-7-6.2-11.5-7.1c-7.5-1.4-9.1-4.8-5.2-11.5c3.7-2.8,7.1-2.8,11,0
		c3.4,4,6.9,7.9,10.5,12.1c0.7-0.4,1.6-0.9,2.4-1.4C67.5,10.2,70.9,10.3,79.7,18.3z M36.9,66.7c1,3.4,3.9,4,7.9,3.2
		c4.2-0.9,4.3-4,4.9-7.1c0.9-4.9,1.8-9.8,2.9-14.7c1-4.3-0.9-5.7-4.9-5.7c-3.4,0-4.2,1.9-4.7,4.6c-0.6,3.7-1.4,7.4-2,10.5
		c-2.8-2.4-5.1-5.9-7-5.7c-2.4,0.3-4.5,3.5-7.3,6.1c-0.3-3.5-0.8-7-0.8-10.5c0-4.3-2.2-4.8-5.8-4.7c-3.8,0.2-5,1.7-4.2,5.3
		c1.1,5.4,2.2,10.8,2.9,16.2c0.6,4.4,2.7,6.4,7,5.4C29.3,69,32.7,67.9,36.9,66.7z M36.5,39.7C36,35.3,38.1,30.4,33,28
		c-3-1.4-6.3-1.1-8.6,2.2c2.6,0,5.1,0,7.7,0c0,0.5,0.1,1,0.1,1.5c-2,0.6-4.2,0.8-6,1.8c-1.5,0.8-2.7,2.4-4,3.7
		c1.5,1.1,2.9,3,4.5,3.2C29.6,40.7,32.6,40,36.5,39.7z M41.5,27.7c-0.5,0-0.9,0-1.4,0c0,3.7,0,7.5,0,11.2c0.5,0,0.9,0,1.4,0
		C41.5,35.2,41.5,31.4,41.5,27.7z M46.3,27.9c-0.4,0-0.9,0-1.3,0c0,3.6,0,7.2,0,10.8c0.4,0,0.9,0,1.3,0
		C46.3,35.1,46.3,31.5,46.3,27.9z"/>
	<path class="st0" d="M25.7,35.6c2.3-0.4,4.5-0.9,7.3-1.4C31.3,39.1,29.7,39.6,25.7,35.6z"/>
</g>
</svg>
