<?xml version="1.0" encoding="utf-8"?>
<!-- Generator: Adobe Illustrator 19.0.0, SVG Export Plug-In . SVG Version: 6.00 Build 0)  -->
<svg version="1.1" id="レイヤー_1" xmlns="http://www.w3.org/2000/svg" xmlns:xlink="http://www.w3.org/1999/xlink" x="0px"
	 y="0px" viewBox="0 0 79.3 82.5" style="enable-background:new 0 0 79.3 82.5;" xml:space="preserve">
<style type="text/css">
	.st0{fill:#51960C;}
</style>
<g>
	<path class="st0" d="M76.3,18.3c0.7,1,1.6,2.1,0,3c-5.4,1.1-10.8,2.8-16.3,3.2c-7,0.5-8.6,2.2-6.1,8.7c7.1,18.2-2.3,38-20.8,44
		c-0.9,0.3-1.9,0.7-2.8,1.1c-4.3,1.8-8.6,1.7-13,0c-5.7-2.3-9.7-6.3-12-12c-2.1-4.1-1.3-8.8,0-13c2.1-5.2,4.3-10.4,6.4-15.6
		C17.6,23.3,28,18.6,42.9,23.6c1.4,0.5,2.8,0.9,4.2,1.4c-2.1-5.9-7-6.2-11.5-7.1C28,16.4,26.5,13,30.3,6.3c3.8-3.6,7.6-2.8,11,0
		c3.4,4,6.9,7.9,10.5,12.1c0.7-0.4,1.6-0.9,2.4-1.4C64.2,10.2,67.5,10.3,76.3,18.3z M33.6,66.7c1,3.4,3.9,4,7.9,3.2
		c4.2-0.9,4.3-4,4.9-7.1c0.9-4.9,1.8-9.8,2.9-14.7c1-4.3-0.9-5.7-4.9-5.7c-3.4,0-4.2,1.9-4.7,4.6c-0.6,3.7-1.4,7.4-2,10.5
		c-2.8-2.4-5.1-5.9-7-5.7c-2.4,0.3-4.5,3.5-7.3,6.1c-0.3-3.5-0.8-7-0.8-10.5c0-4.3-2.2-4.8-5.8-4.7c-3.8,0.2-5,1.7-4.2,5.3
		c1.1,5.4,2.2,10.8,2.9,16.2c0.6,4.4,2.7,6.4,7,5.4C25.9,69,29.4,67.9,33.6,66.7z M33.1,39.7c-0.4-4.4,1.7-9.3-3.5-11.7
		c-3-1.4-6.3-1.1-8.6,2.2c2.6,0,5.1,0,7.7,0c0,0.5,0.1,1,0.1,1.5c-2,0.6-4.2,0.8-6,1.8c-1.5,0.8-2.7,2.4-4,3.7
		c1.5,1.1,2.9,3,4.5,3.2C26.2,40.7,29.2,40,33.1,39.7z M38.2,27.7c-0.5,0-0.9,0-1.4,0c0,3.7,0,7.5,0,11.2c0.5,0,0.9,0,1.4,0
		C38.2,35.2,38.2,31.4,38.2,27.7z M43,27.9c-0.4,0-0.9,0-1.3,0c0,3.6,0,7.2,0,10.8c0.4,0,0.9,0,1.3,0C43,35.1,43,31.5,43,27.9z"/>
	<path class="st0" d="M22.3,35.6c2.3-0.4,4.5-0.9,7.3-1.4C27.9,39.1,26.3,39.6,22.3,35.6z"/>
</g>
</svg>
